<svg xmlns="http://www.w3.org/2000/svg" xmlns:xlink="http://www.w3.org/1999/xlink" version="1.1" x="0px" y="0px" viewBox="0 0 64 64" style="enable-background:new 0 0 64 64;" xml:space="preserve" preserveAspectRatio="none" width="64" height="64" class="" fill="rgba(235, 39, 39, 1)"><defs><symbol id="shape_hGAGPUYAuB" viewBox="0 0 64 64"><g><path d="M24.9,43.7c-1.5,0-2.9,0.4-4.1,1.2l-7.1-28.1c-0.2-0.8-0.4-1.7-0.6-2.5c-0.1-0.5-0.4-0.7-0.9-0.9c-3.2-1-6.3-2-9.5-2.9   c-1.1-0.3-2-1.2-1.7-2.6c0.2-1,1-1.7,2-1.7c0.2,0,0.4,0,0.6,0.1c3.8,1.1,7.6,2.2,11.7,3.5c0.9,0.3,1.5,0.9,1.7,2L24.9,43.7z"></path><path d="M30.8,52.2c0,3.1-2.6,5.6-5.7,5.6h0c-3.2,0-5.6-2.5-5.6-5.7c0-3.1,2.6-5.6,5.7-5.6c1.5,0,3,0.6,4,1.7   C30.2,49.3,30.8,50.7,30.8,52.2z"></path><g><path d="M60.5,48.5c-1.8,0.5-5.1,1.4-7,1.8L42,53.1c-2.8,0.7-5.7,1.4-8.5,2.1c0.1-0.4,0.2-0.7,0.3-1.1c0.1-0.6,0.1-1.1,0.1-1.6    c0-0.9-0.1-1.9-0.4-2.8c-0.1-0.4-0.3-0.9-0.5-1.3l25.9-6.4c0.4-0.1,0.7-0.1,1-0.1c1.7,0,3.1,1.2,3.3,2.9    C63.4,46.5,62.3,48,60.5,48.5z"></path></g><path d="M55.6,32.6C54.2,27,52.7,20.8,50.7,13c-0.5-1.9-2.4-3.1-4.6-2.6c-1.7,0.4-3.5,0.9-5.2,1.3l-0.2,0.1   c-0.6,0.1-1.2,0.3-1.8,0.5c0.2,0.9,0.4,1.7,0.7,2.6l0.6,2.4l-1,0.2c-1,0.3-1.9,0.5-2.9,0.7l-0.9,0.2l-0.5-1.8c-0.3-1-0.5-2-0.8-2.9   c-0.1-0.3-0.1-0.3-0.2-0.3c0,0,0,0-0.2,0l-3.3,0.8c-1.3,0.3-2.5,0.6-3.8,1c-2.2,0.6-3.3,2.5-2.7,4.7c1.3,5.2,2.6,10.3,3.8,15.5   l0.9,3.6c0.5,2,1.8,3.1,3.7,3.1c0.4,0,0.8-0.1,1.2-0.2c1.3-0.3,2.5-0.6,3.8-0.9l1.2-0.3v0l14-3.5C54.9,36.7,56.1,34.8,55.6,32.6z"></path></g></symbol></defs><use xlink:href="#shape_hGAGPUYAuB" fill="#EB2727"></use></svg>