<svg xmlns:xlink="http://www.w3.org/1999/xlink" xmlns:dc="http://purl.org/dc/elements/1.1/" xmlns:cc="http://creativecommons.org/ns#" xmlns:rdf="http://www.w3.org/1999/02/22-rdf-syntax-ns#" xmlns:svg="http://www.w3.org/2000/svg" xmlns="http://www.w3.org/2000/svg" xmlns:sodipodi="http://sodipodi.sourceforge.net/DTD/sodipodi-0.dtd" xmlns:inkscape="http://www.inkscape.org/namespaces/inkscape" version="1.1" x="0px" y="0px" viewBox="0 0 100 100" preserveAspectRatio="none" width="100" height="100" class="" fill="rgba(235, 39, 39, 1)"><defs><symbol id="shape_xXkoOTvcYx" viewBox="0 0 100 100"><g transform="translate(0,-952.36218)"><path style="opacity: 1; color: rgb(0, 0, 0); stroke: none; stroke-linecap: round; stroke-linejoin: round; stroke-miterlimit: 4; stroke-opacity: 1; stroke-dasharray: none; stroke-dashoffset: 0; marker: none; visibility: visible; display: inline; overflow: visible;" d="M 64 13 C 48.536026 13 36 22.84972 36 35 C 36 47.15022 48.536026 57 64 57 C 66.785423 57 69.460717 56.595 72 56 L 86 64 L 82 52 C 88.23563 47.965 92 41.8426 92 35 C 92 22.84972 79.463974 13 64 13 z M 53 32 C 54.656854 32 56 33.343146 56 35 C 56 36.656854 54.656854 38 53 38 C 51.343146 38 50 36.656854 50 35 C 50 33.343146 51.343146 32 53 32 z M 64 32 C 65.656854 32 67 33.343146 67 35 C 67 36.656854 65.656854 38 64 38 C 62.343146 38 61 36.656854 61 35 C 61 33.343146 62.343146 32 64 32 z M 75 32 C 76.656854 32 78 33.343146 78 35 C 78 36.656854 76.656854 38 75 38 C 73.343146 38 72 36.656854 72 35 C 72 33.343146 73.343146 32 75 32 z M 32.03125 36.21875 C 18.451712 37.736562 8 46.910966 8 58 C 8 64.8426 11.764375 70.965 18 75 L 14 87 L 28 79 C 30.539283 79.595 33.214577 80 36 80 C 50.166933 80 61.885388 71.728921 63.75 61 C 58.829301 60.969418 54.159315 60.034515 49.96875 58.375 C 49.779709 59.849937 48.526348 61 47 61 C 45.343146 61 44 59.656854 44 58 C 44 57.155735 44.344956 56.388904 44.90625 55.84375 C 43.796288 55.172504 42.717526 54.472256 41.71875 53.6875 C 36.198316 49.349998 32.431253 43.168776 32.03125 36.21875 z M 25 55 C 26.656854 55 28 56.343146 28 58 C 28 59.656854 26.656854 61 25 61 C 23.343146 61 22 59.656854 22 58 C 22 56.343146 23.343146 55 25 55 z M 36 55 C 37.656854 55 39 56.343146 39 58 C 39 59.656854 37.656854 61 36 61 C 34.343146 61 33 59.656854 33 58 C 33 56.343146 34.343146 55 36 55 z " transform="translate(0,952.36218)" stroke-width="4px"></path></g></symbol></defs><use xlink:href="#shape_xXkoOTvcYx" fill="#EB2727"></use></svg>