<svg xmlns="http://www.w3.org/2000/svg" xmlns:xlink="http://www.w3.org/1999/xlink" version="1.1" x="0px" y="0px" viewBox="0 0 100 100" enable-background="new 0 0 100 100" xml:space="preserve" preserveAspectRatio="none" width="100" height="100" class="" fill="rgba(235, 39, 39, 1)"><defs><symbol id="shape_icRorbPrbr" viewBox="0 0 100 100"><g><path d="M51.1,62.8h-2.1c-3.6,0-6.5,2.9-6.5,6.5V91c0,3.6,2.9,6.5,6.5,6.5h2.1c3.6,0,6.5-2.9,6.5-6.5V69.3   C57.6,65.7,54.7,62.8,51.1,62.8z"></path><path d="M78.9,12.6h-9.4v1.2h-6.2C62.2,7.4,56.7,2.5,50,2.5c-6.7,0-12.2,4.9-13.2,11.3h-6.2v-1.2h-9.4c-1.8,0-3.3,1.5-3.3,3.3   s1.5,3.3,3.3,3.3h9.4V18h6.2c0.7,4.3,3.5,8,7.3,9.9v3.2h-4.9c-6.6,0-12,5.2-12.3,11.8l-2.1,27.4c-0.3,7,5.3,12.8,12.3,12.8H39V68   c0-5.1,4.2-9.4,9.4-9.4h3.3c5.1,0,9.4,4.2,9.4,9.4v15.2h1.9c7,0,12.6-5.8,12.3-12.8l-2.1-27.4c-0.3-6.6-5.7-11.8-12.3-11.8H56v-3.2   c3.8-1.9,6.6-5.5,7.3-9.9h6.2v1.2h9.4c1.8,0,3.3-1.5,3.3-3.3S80.7,12.6,78.9,12.6z M56.4,39.2c0,1.5-2.9,2.8-6.4,2.8   s-6.4-1.2-6.4-2.8s2.9-2.8,6.4-2.8S56.4,37.6,56.4,39.2z M50,24.9c-4.9,0-8.9-4-8.9-8.9c0-4.9,4-8.9,8.9-8.9c4.9,0,8.9,4,8.9,8.9   C58.9,20.8,54.9,24.9,50,24.9z"></path></g></symbol></defs><use xlink:href="#shape_icRorbPrbr" fill="#EB2727"></use></svg>