<svg xmlns="http://www.w3.org/2000/svg" xmlns:xlink="http://www.w3.org/1999/xlink" version="1.1" x="0px" y="0px" viewBox="0 0 100 100" enable-background="new 0 0 100 100" xml:space="preserve" preserveAspectRatio="none" width="100" height="100" class="" fill="rgba(235, 39, 39, 1)"><defs><symbol id="shape_tMbfWQQnfc" viewBox="0 0 100 100"><path d="M36.5,81.1c7.6,0,13.8-6.2,13.8-13.8c0-7.6-6.2-13.8-13.8-13.8c-7.6,0-13.8,6.2-13.8,13.8C22.8,75,28.9,81.1,36.5,81.1z   M31.7,72.8c0.1-0.5,0.2-0.9,0.4-1.4c0.2-0.5,0.3-0.6,0.8-0.3c0.8,0.4,1.7,0.7,2.6,0.8c0.6,0.1,1.2,0,1.7-0.2c1-0.4,1.2-1.6,0.3-2.3  c-0.3-0.2-0.6-0.4-1-0.6c-0.9-0.4-1.8-0.7-2.7-1.2c-1.4-0.8-2.2-1.9-2.1-3.6c0.1-1.9,1.2-3,2.9-3.7c0.7-0.3,0.7-0.2,0.7-1  c0-0.3,0-0.5,0-0.8c0-0.6,0.1-0.7,0.7-0.7c0.2,0,0.3,0,0.5,0c1.2,0,1.2,0,1.2,1.2c0,0.8,0,0.8,0.8,1c0.6,0.1,1.2,0.3,1.8,0.5  c0.3,0.1,0.4,0.4,0.3,0.7c-0.1,0.5-0.3,1-0.5,1.5c-0.2,0.5-0.3,0.5-0.8,0.3c-0.9-0.4-1.9-0.6-2.9-0.6c-0.3,0-0.5,0.1-0.8,0.2  c-0.9,0.4-1,1.4-0.3,2c0.4,0.3,0.8,0.5,1.3,0.7c0.8,0.3,1.6,0.6,2.3,1c2.4,1.3,3,4.3,1.3,6.3c-0.6,0.7-1.4,1.2-2.3,1.5  c-0.4,0.1-0.6,0.3-0.6,0.7c0,0.4,0,0.8,0,1.2c0,0.4-0.2,0.6-0.5,0.6c-0.4,0-0.9,0-1.3,0c-0.4,0-0.6-0.2-0.6-0.6c0-0.3,0-0.6,0-0.9  c0-0.7,0-0.7-0.7-0.8c-0.8-0.1-1.6-0.3-2.3-0.7C31.6,73.6,31.6,73.4,31.7,72.8z M12.7,68.1c0-2.1,1.7-3.8,3.8-3.8  c2.1,0,3.8,1.7,3.8,3.8c0,2.1-1.7,3.8-3.8,3.8C14.4,71.9,12.7,70.2,12.7,68.1z M52.8,68.1c0-2.1,1.7-3.8,3.8-3.8  c2.1,0,3.8,1.7,3.8,3.8c0,2.1-1.7,3.8-3.8,3.8C54.5,71.9,52.8,70.2,52.8,68.1z M97.4,63.5L78.1,82.8v-7.2l7.3-7.3l-7.3-7.3v-9.7  c0-0.9-0.1-1.7-0.3-2.5l13.6,13.6l2.4-2.4c0.6-0.6,0.6-1.6,0-2.1L51.7,15.7c-0.6-0.6-1.6-0.6-2.1,0l-2.4,2.4l22.3,22.3  c-0.8-0.2-1.6-0.3-2.5-0.3h-9.7l-16-16L27.1,38.2c-0.5,0.5-0.6,1.3-0.2,1.9h-5.3c-0.2-2,0.4-4,1.9-5.5l22.5-22.5  c2.6-2.6,6.8-2.6,9.3,0l42.1,42.1C99.9,56.7,99.9,60.9,97.4,63.5z M7,89.8h60c3.5,0,6.3-2.8,6.3-6.3V51.2c0-3.5-2.8-6.3-6.3-6.3H7  c-3.5,0-6.3,2.8-6.3,6.3v32.3C0.7,87,3.5,89.8,7,89.8z M6.1,58c0.5,0.1,1,0.2,1.6,0.2c3.5,0,6.4-2.8,6.4-6.4c0-0.5-0.1-1.1-0.2-1.6  h46.7c-0.1,0.4-0.1,0.8-0.1,1.2c0,3.5,2.8,6.4,6.4,6.4c0.4,0,0.8,0,1.1-0.1V77c-0.4-0.1-0.7-0.1-1.1-0.1c-3.5,0-6.4,2.8-6.4,6.4  c0,0.4,0,0.8,0.1,1.2H14c0-0.3,0-0.5,0-0.8c0-3.5-2.8-6.4-6.4-6.4c-0.5,0-1.1,0.1-1.6,0.2V58z"></path></symbol></defs><use xlink:href="#shape_tMbfWQQnfc" fill="#EB2727"></use></svg>