<svg xmlns="http://www.w3.org/2000/svg" xmlns:xlink="http://www.w3.org/1999/xlink" version="1.1" x="0px" y="0px" viewBox="0 0 100 100" enable-background="new 0 0 100 100" xml:space="preserve" preserveAspectRatio="none" width="100" height="100" class="" fill="rgba(235, 39, 39, 1)"><defs><symbol id="shape_mMHyJAAqKP" viewBox="0 0 100 100"><path d="M31.705,69.66c4.562,4.562,6.841,10.555,6.843,16.548h9.69c0.001-8.478-3.226-16.951-9.678-23.403  c-6.453-6.453-14.927-9.68-23.403-9.677l0.001,9.689C21.149,62.818,27.142,65.099,31.705,69.66z"></path><path d="M28.73,86.208c0.003-3.475-1.323-6.949-3.974-9.599c-2.651-2.651-6.124-3.979-9.598-3.977l-0.001,13.575H28.73z"></path><path d="M45.325,56.04c8.319,8.318,12.477,19.243,12.477,30.168h9.693c-0.001-13.409-5.105-26.816-15.313-37.025  C41.975,38.975,28.565,33.871,15.157,33.869l0,9.694C26.083,43.563,37.008,47.722,45.325,56.04z"></path><path d="M58.985,42.38C71.068,54.464,77.11,70.335,77.11,86.208l9.692-0.001c0-18.353-6.987-36.71-20.961-50.684  c-13.975-13.973-32.33-20.961-50.685-20.96v9.692C31.03,24.255,46.901,30.297,58.985,42.38z"></path></symbol></defs><use xlink:href="#shape_mMHyJAAqKP" fill="#EB2727"></use></svg>